<svg fill="none" height="230" viewBox="0 0 1024 230" width="1024" xmlns="http://www.w3.org/2000/svg"><g fill="#f93d59"><path clip-rule="evenodd" d="m126.494 1v81.7925l-.873.4071c-.609-.9333-1.204-1.8783-1.8-2.8232-1.243-1.9714-2.485-3.9426-3.843-5.8069-.64-.8798-1.168-1.8405-1.698-2.8035-1.13-2.0559-2.267-4.1231-4.516-5.4399-8.061-4.6916-16.956-6.5336-25.9913-7.3987-11.8363-1.1398-23.5821-.3562-35.057 3.7146-17.1871 6.0146-29.8767 17.2093-38.912 33.0651-7.38881 13.0059-10.37046 27.3249-11.50489 42.0509-.69133 9.455-.18185 18.96 1.51592 28.282 1.3763 8.297 3.88331 16.36 7.44907 23.957 6.1741 12.874 15.1994 23.051 27.7083 29.9 8.5038 4.63 17.9168 7.286 27.5576 7.775 13.9043.824 27.4773-.59 40.2973-6.472 2.671-1.222 5.512-2.687 7.419-4.824 1.859-2.061 3.327-4.459 4.795-6.855.728-1.189 1.457-2.378 2.233-3.526.975-1.424 1.991-2.791 3.009-4.16.481-.646.961-1.293 1.438-1.946l.703.275v23.407c.471.027.895.063 1.289.095.624.052 1.175.098 1.722.098 4.909.026 9.819.017 14.729.009 6.719-.012 13.437-.024 20.148.052 2.58.031 3.192-.773 3.192-3.317-.04-72.237-.06-144.473-.06-216.70933v-2.79867zm.713 140.605-.663-.112c.291-9.688-.652-19.224-3.905-28.383-2.711-7.623-7.098-14.1972-13.663-18.6242-3.119-2.0862-6.286-3.7272-9.4893-4.9206-5.9438-2.2366-12.016-2.9057-18.1472-2.0016-4.7512.688-9.5323 2.3146-14.3077 4.8869-10.0192 5.3938-15.862 14.5935-18.8737 25.3815-1.1802 4.184-1.7629 8.54-2.3462 12.901-.2553 1.908-.5106 3.817-.8162 5.713-1.3151 8.619-.261 17.189 1.3252 25.666 1.5037 8.556 5.0811 16.6 10.4106 23.407 3.2711 4.196 7.4175 7.548 12.099 9.846 2.6058 1.288 5.379 2.249 8.2605 2.845 5.5657 1.14 11.3001 1.14 16.8658 0 5.6528-.953 10.9912-3.29 15.5512-6.809 8.422-6.686 13.051-15.815 14.958-26.195.974-5.344 1.487-10.78 2-16.218.087-.923.175-1.847.264-2.771.104-1.077.212-2.154.326-3.229.049-.461.099-.922.151-1.383z" fill-rule="evenodd"/><path d="m400.565 223.581c-1.185.071-2.079.173-3.012.183-11.626 0-23.261-.071-34.886.061-2.591 0-3.173-.794-3.173-3.328.087-29.757.087-59.521 0-89.293.047-6.338-.288-12.673-1.004-18.969-1.516-11.938-7.569-20.3544-19.556-23.4075-9.307-2.4221-18.402-2.1474-26.674 3.2464-5.622 3.7933-10.032 9.1651-12.69 15.4591-4.074 8.819-6.316 18.394-6.586 28.129-.472 28.038-.602 56.085-.873 84.123v3.786c-1.084.081-2.008.203-2.861.203-11.716 0-23.422 0-35.138.072-2.479 0-3.011-.825-3.011-3.206.06-51.638.077-103.28.05-154.9245v-2.819c1.004-.0712 1.646-.1527 2.299-.1527h36.141c1.958 0 2.63.5394 2.59 2.5748-.11 6.2691 0 12.5483 0 18.8173v2.7579l.783.4987c1.133-1.2367 2.198-2.5344 3.193-3.8876 2.73-4.2031 4.849-8.9456 8.162-12.5686 2.76-3.0531 6.686-5.1597 10.44-6.9814 11.495-5.5668 23.844-5.9739 36.242-5.0885 10.591.7429 20.661 3.5213 29.425 9.8412 8.36 5.9641 14.398 14.7058 17.067 24.7097 2.941 10.4517 3.142 21.1787 3.162 31.9257.04 31.792.04 63.589 0 95.388z"/><path d="m684.594 59.8027v15.5809c1.727-1.3128 3.012-2.1778 4.166-3.1853 5.903-5.1496 11.746-10.3704 17.669-15.4996 10.334-8.9558 20.681-17.8878 31.042-26.796 4.608-3.969 9.145-8.0297 13.844-11.8867 3.493-2.8598 7.308-2.6155 10.611.4579 5.692 5.2819 11.314 10.635 16.976 15.9474 8.942 8.3994 17.887 16.7852 26.835 25.1575l26.102 24.4248c1.084.9816 1.938 2.1966 2.499 3.556s.816 2.8288.744 4.3006c-.06 40.8778-.06 81.7548 0 122.6328 0 5.597-3.142 9.159-8.634 9.23-15.982.123-31.955.082-47.937 0-3.353 0-4.397-1.261-4.397-4.742v-47.008c.102-.82-.05-1.653-.435-2.382-.384-.729-.983-1.319-1.714-1.688-7.268-4.254-10.41-10.951-9.898-19.235.672-10.879 1.747-21.728 2.68-32.566.432-5.089.934-10.096 1.416-15.144.004-.324.073-.645.202-.943.129-.2968.317-.5646.551-.7867.12 1.2417.351 2.4837.351 3.7147-.067 13.393-.161 26.786-.281 40.179 0 .682-.231 1.506.07 2.035.482.794 1.345 1.913 2.008 1.883.46-.127.879-.373 1.217-.714s.583-.764.711-1.23c.512-7.684.763-15.377 1.234-23.061.482-7.908 1.115-15.815 2.269-23.7735.16.4652.271.9462.332 1.435.18 8.4675.311 16.9445.512 25.4425.16 6.595.431 13.23.602 19.784 0 1.343.251 2.341 1.907 2.31 1.657-.03 2.179-.875 2.189-2.412 0-7.622 0-15.265.231-22.888.231-7.938.723-15.856 1.415-23.8445.402 3.2465 1.004 6.4825 1.155 9.7395.582 10.564 1.004 21.127 1.536 31.691.058 2.023.253 4.039.582 6.035.126.38.344.721.636.992.291.271.646.462 1.031.555.411-.049.806-.193 1.154-.42.348-.228.64-.533.853-.893.252-.809.311-1.667.171-2.503-.161-13.57-.324-27.119-.492-40.647-.039-1.406.25-2.8004.844-4.0712.592 4.7732 1.295 9.5462 1.756 14.3392.613 6.391 1.004 12.803 1.546 19.204.482 6.106 1.285 12.111 1.406 18.166.119 2.952-.431 5.892-1.608 8.594-1.176 2.703-2.948 5.097-5.179 6.997-.513.552-1.126.998-1.807 1.313-2.861.957-3.544 2.829-3.493 5.842.19 13.311.13 26.633 0 39.944 0 2.239.482 3.125 2.891 3.104 13.131-.101 26.263-.071 39.394 0 2.259 0 3.253-.59 3.253-3.185-.081-40.108 0-80.215-.121-120.3328-.031-1.2957-.532-2.5344-1.405-3.4805-7.878-7.7209-15.836-15.3469-23.874-22.8779-8.192-7.7141-16.454-15.3571-24.696-23.0203-6.465-6.0248-12.971-11.9987-19.396-18.0642-1.285-1.2212-2.279-1.0177-3.443 0-3.133 2.758-6.265 5.5159-9.417 8.2434l-24.877 21.5854c-5.361 4.6407-10.682 9.3119-16.063 13.9526-6.285 5.4549-12.519 10.9912-18.924 16.2832-2.811 2.3407-4.307 4.7425-4.257 8.7217.231 19.4994.141 39.0084.091 58.5174 0 19.917-.181 39.843-.271 59.77 0 3.735.07 3.816 3.835 3.816h40.91c3.262 0 3.403-.163 3.403-3.45v-42.468c0-2.107-.482-3.115-2.741-3.959-8.423-3.114-13.804-9.414-16.253-18.085-2.45-8.671-1.145-17.301 1.746-25.595 1.835-5.197 4.018-10.26 6.536-15.153 2.013-3.988 5.128-7.294 8.965-9.516 4.447-2.5951 9.648-1.6181 13.924 2.402 6.827 6.411 10.27 14.716 12.83 23.498 1.878 6.443 3.012 13.017 2.099 19.764-1.456 10.859-6.837 18.807-17.167 22.654-2.149.804-2.641 1.832-2.641 3.837v49.104c-.1 3.582-1.004 4.681-4.457 4.691-16.565.062-33.13 0-49.684.051-1.176.011-2.342-.221-3.427-.681s-2.066-1.14-2.884-1.996c-.818-.857-1.455-1.873-1.874-2.988-.418-1.114-.608-2.303-.559-3.494.08-50.715.08-101.427 0-152.1358 0-2.1677.743-2.7885 2.77-2.6765 2.741.1119 5.422 0 8.604 0z"/><path d="m229.617 223.571h-40.659v-159.9316c13.523 7.2562 26.985 7.3376 40.659 0z"/><path d="m863.312 223.734c-3.524 0-6.686.061-9.848-.061-.482 0-1.145-.804-1.346-1.374-.146-.748-.173-1.514-.08-2.27v-156.7254c0-1.1704.121-2.3306.191-3.5314h11.043v33.0345l.843.2442c1.539-2.9206 2.919-5.9239 4.136-8.9964 3.494-10.177 11.385-16.0492 19.998-21.0562 12.55-7.2868 26.374-8.6098 40.388-7.1239 12.901 1.3433 24.556 6.1062 33.571 16.0898 5.63 6.3205 9.56 14.0026 11.415 22.308 2.791 11.7548 3.192 23.7628 3.192 35.7618-.06 30.097-.06 60.197 0 90.301v3.236h-10.842c0-1.15-.14-2.209-.14-3.277v-78.851c0-6.27.07-12.559-.342-18.808-.592-8.996-.823-18.074-3.544-26.7752-4.377-13.9934-12.84-23.9567-27.106-28.3531-8.362-2.5646-16.886-2.5748-25.298-1.5469-9.123 1.1233-17.728 4.91-24.767 10.8995-8.734 7.3173-14.165 16.6598-17.519 27.4777-2.727 9.143-4.038 18.66-3.885 28.211.101 29.157 0 58.334 0 87.522z"/><path d="m641.707 59.823h10.992c.061 1.1195.161 2.1168.161 3.1142v157.4078c0 3.409 0 3.419-3.494 3.419h-5.772c-1.365 0-2.008-.519-1.898-1.964 0-.509 0-1.018 0-1.527v-160.45z"/><path d="m231.845 38.4004c.141 12.7314-9.175 21.5142-22.226 21.504-13.925 0-22.819-8.6301-22.809-22.0332 0-12.6093 9.155-22.1451 23.441-21.7991 12.128.285 21.996 8.9252 21.594 22.3283z"/><path d="m647.529 29.1801c5.431.4783 8.423 3.7451 8.534 8.7623.025 2.3375-.867 4.5893-2.479 6.2603-1.613 1.6709-3.814 2.6241-6.12 2.6497s-4.527-.8783-6.176-2.513c-1.648-1.6347-2.588-3.8662-2.613-6.2036.033-2.368.978-4.6292 2.632-6.3019 1.653-1.6727 3.886-2.6249 6.222-2.6538z"/><path d="m1021.16 79.2814c-.21-.9486-.36-1.9109-.44-2.8801 0-4.4066 0-8.8133-.06-13.2301-.13-1.0674-.35-2.1204-.68-3.1447h-.65l-5.56 14.9806c-.18.6439-.44 1.2625-.77 1.842-.53.7154-1.1 1.3953-1.72 2.0354-.7-.7124-1.72-1.3128-2.06-2.1779-1.78-4.5288-3.39-9.1593-5.1-13.688-.43-1.2409-1.14-2.3628-2.08-3.277-.07.8447-.19 1.6893-.19 2.534 0 4.8341 0 9.6682-.05 14.5022-.16.7243-.44 1.4137-.84 2.0354-.33-.6513-.93-1.2924-.93-1.9438-.074-6.9407 0-13.8814 0-20.8933 2.11-.804 3.29-.5394 4.01 1.8013 1.76 5.4243 3.8 10.7571 5.76 16.1102.52 1.0262 1.1 2.0126 1.76 2.9513l3.57-9.6987c1.17-3.2261 2.42-6.4115 3.48-9.6783.61-1.9234 1.69-2.2796 3.36-1.6385.84 4.0505.47 21.5956-.81 23.458z"/><path d="m977.91 55.7625h17.9c.013.1978.037.3948.07.5902-.894.0713-1.777.1934-2.67.2036-6.165.0814-5.371-.7226-5.412 5.6177v14.4615c0 .7225-.632 1.4349-1.004 2.1575-.38-.6268-.652-1.3153-.803-2.0354-.06-5.8416-.09-11.673 0-17.5146 0-1.9744-.642-2.7783-2.61-2.6562-1.807.1119-3.624 0-5.441 0z"/><path clip-rule="evenodd" d="m461.256 154.093c.181 1.374.328 2.714.473 4.024.319 2.889.623 5.638 1.229 8.32 1.486 6.626 3.454 13.057 7.399 18.787 4.254 6.489 10.813 11.065 18.312 12.772 7.255 1.819 14.868 1.54 21.976-.804 9.617-3.236 16.384-9.515 19.636-19.407.096-.28.209-.552.322-.825.113-.272.225-.544.321-.824l.003-.01c1.513-4.488 1.516-4.498 6.121-4.498h35.92c-.513 1.563-.989 3.083-1.456 4.569-.938 2.994-1.834 5.852-2.901 8.661-4.048 10.401-10.715 19.545-19.335 26.521-7.452 6.047-16.034 10.502-25.229 13.098-12.69 3.816-25.7 4.264-38.681 2.829-13.563-1.321-26.473-6.535-37.215-15.032-12.881-10.268-20.4-23.783-24.576-39.557-2.099-7.83-3.173-15.905-3.193-24.018 0-1.05-.006-2.105-.012-3.162-.029-5.088-.058-10.236.574-15.259 1.526-12.1 4.779-23.783 11.445-34.123 3.275-5.4118 7.075-10.478 11.344-15.123 8.346-8.4852 18.593-14.7981 29.867-18.4 11.901-3.8144 24.455-5.0794 36.864-3.7146 12.575 1.0681 24.595 5.718 34.675 13.4133 12.013 9.0516 20.814 21.8006 25.088 36.3423 1.908 6.275 3.252 12.713 4.016 19.234.656 5.872.711 11.822.766 17.762.013 1.421.026 2.842.047 4.261.06 3.837-.441 4.163-4.126 4.163zm1.2-27.071c.287-2.149.628-4.246 1.046-6.294 1.235-6.062 3.136-11.689 6.243-16.9 7.74-12.9955 19.396-17.5853 33.912-16.0384 6.749.5324 13.063 3.5555 17.753 8.4832.151.1589.301.3198.448.4827 4.635 5.3415 7.821 11.8115 9.247 18.7765.428 1.832.766 3.668 1.106 5.519.178.968.357 1.94.55 2.918.427 2.165.454 2.803-.821 2.984-.406.064-.949.079-1.659.079h-67.825z" fill-rule="evenodd"/></g></svg>