<svg id="visual" viewBox="0 0 1440 160" width="1440" height="160" xmlns="http://www.w3.org/2000/svg" xmlns:xlink="http://www.w3.org/1999/xlink" version="1.1"><path d="M0 94L40 84.8C80 75.7 160 57.3 240 56.8C320 56.3 400 73.7 480 81.8C560 90 640 89 720 86.3C800 83.7 880 79.3 960 71.3C1040 63.3 1120 51.7 1200 48.7C1280 45.7 1360 51.3 1400 54.2L1440 57L1440 0L1400 0C1360 0 1280 0 1200 0C1120 0 1040 0 960 0C880 0 800 0 720 0C640 0 560 0 480 0C400 0 320 0 240 0C160 0 80 0 40 0L0 0Z" fill="#0066FF" stroke-linecap="round" stroke-linejoin="miter"></path></svg>