<svg viewBox="0 0 32 32" fill="none" xmlns="http://www.w3.org/2000/svg">
<path fill-rule="evenodd" clip-rule="evenodd" 
d="M4.0663 27.8535C6.77716 30.6178 10.7551 32 16 32C21.2449 32 25.2228 30.6178 
27.9337 27.8535C30.6446 25.0592 32 21.108 32 16C32 10.892 30.6446 6.95587 27.9337 
4.19155C25.2228 1.39718 21.2449 0 16 0C10.7551 0 6.77716 1.39718 4.0663 4.19155C1.35543 
6.95587 0 10.892 0 16C0 21.108 1.35543 25.0592 4.0663 27.8535ZM16 3C14.8954 3 14 3.89543 
14 5V16C14 17.1046 14.8954 18 16 18H22C23.1046 18 24 17.1046 24 16C24 14.8954 23.1046 14 
22 14H18V5C18 3.89543 17.1046 3 16 3ZM26.2567 14.5899C25.8634 14.9832 25.6667 15.4484 
25.6667 15.9856C25.6667 16.5612 25.8586 17.0408 26.2423 17.4245C26.626 17.8082 27.1008 
18 27.6667 18C28.2231 18 28.6931 17.8082 29.0768 17.4245C29.4701 17.0312 29.6667 16.5564 
29.6667 16C29.6667 15.4532 29.4701 14.9832 29.0768 14.5899C28.6835 14.1966 28.2135 14 
27.6667 14C27.12 14 26.65 14.1966 26.2567 14.5899Z" fill="#0088ff"/>
</svg>
