<svg width="509" height="201" viewBox="0 0 509 201" fill="none" xmlns="http://www.w3.org/2000/svg">
<path fill-rule="evenodd" clip-rule="evenodd" d="M493 135.5L493 65.5C493 57.768 486.732 51.5 479 51.5L445 51.5L445 149.5L479 149.5C486.732 149.5 493 143.232 493 135.5ZM509 65.5C509 48.9315 495.569 35.5 479 35.5L439 35.5C433.477 35.5 429 39.9771 429 45.5L429 155.5C429 161.023 433.477 165.5 439 165.5H479C495.569 165.5 509 152.069 509 135.5L509 65.5Z" fill="black"/>
<path d="M0 158.833L0 42.1667C0 19.2 23.7918 0.499998 53.0121 0.499998L293.538 0.499998C319.027 0.499998 342.988 8.3 361.012 22.4667L387.37 43.1833C393.371 47.9 401.365 50.5 409.847 50.5L429.398 50.5C435.25 50.5 440 54.2333 440 58.8333C440 63.4333 435.25 67.1667 429.398 67.1667L409.847 67.1667C395.703 67.1667 382.408 62.8333 372.378 54.9667L346.02 34.25C332.004 23.2333 313.365 17.1667 293.538 17.1667L53.0121 17.1667C35.4757 17.1667 21.2048 28.3833 21.2048 42.1667L21.2048 158.833C21.2048 172.617 35.4757 183.833 53.0121 183.833L293.538 183.833C313.365 183.833 331.983 177.767 346.02 166.75L372.378 146.033C382.365 138.167 395.682 133.833 409.868 133.833L429.398 133.833C435.25 133.833 440 137.567 440 142.167C440 146.767 435.25 150.5 429.398 150.5L409.868 150.5C401.365 150.5 393.371 153.1 387.37 157.817L361.012 178.533C342.988 192.7 319.027 200.5 293.538 200.5L53.0121 200.5C23.7918 200.5 0 181.8 0 158.833Z" fill="black"/>
<path d="M94.184 130C92.2832 130 90.9296 129.588 90.1232 128.765C89.3744 127.941 89 126.676 89 124.971V75.0294C89 73.3235 89.3744 72.0588 90.1232 71.2353C90.9296 70.4118 92.2832 70 94.184 70H104.466C106.424 70 107.778 70.4118 108.526 71.2353C109.333 72 109.736 73.2647 109.736 75.0294V115H129.867C131.71 115 132.949 115.412 133.582 116.235C134.274 117 134.619 118.265 134.619 120.029V124.971C134.619 126.735 134.274 128.029 133.582 128.853C132.949 129.618 131.71 130 129.867 130H94.184Z" fill="black"/>
<path d="M171 130C160.838 130 153.131 127.408 147.878 122.225C142.626 116.986 140 109.577 140 100C140 90.4225 142.626 83.0422 147.878 77.8592C153.131 72.6197 160.838 70 171 70C181.162 70 188.869 72.6197 194.122 77.8592C199.374 83.0422 202 90.4225 202 100C202 109.577 199.374 116.986 194.122 122.225C188.869 127.408 181.162 130 171 130ZM171 115.803C174.711 115.803 177.394 114.507 179.05 111.915C180.705 109.268 181.533 105.296 181.533 100C181.533 94.6479 180.705 90.6761 179.05 88.0845C177.394 85.493 174.711 84.1972 171 84.1972C167.289 84.1972 164.606 85.493 162.95 88.0845C161.295 90.6761 160.467 94.6479 160.467 100C160.467 105.296 161.295 109.268 162.95 111.915C164.606 114.507 167.289 115.803 171 115.803Z" fill="black"/>
<path fill-rule="evenodd" clip-rule="evenodd" d="M232 5.5L248 5.5L248 195.5L232 195.5L232 5.5Z" fill="black"/>
<path fill-rule="evenodd" clip-rule="evenodd" d="M43 195.5L43 5.5L59 5.5L59 195.5L43 195.5Z" fill="black"/>
</svg>
